<mxfile host="app.diagrams.net" modified="2023-09-28T17:56:43.469Z" agent="Mozilla/5.0 (Windows NT 10.0; Win64; x64) AppleWebKit/537.36 (KHTML, like Gecko) Chrome/117.0.0.0 Safari/537.36 Edg/117.0.2045.43" etag="hbcaHXx-nXYn1N1dwpWP" version="22.0.0" type="device">
  <diagram name="Page-1" id="cJD5-eZHXHC75Lkf1WzA">
    <mxGraphModel dx="1002" dy="577" grid="1" gridSize="10" guides="1" tooltips="1" connect="1" arrows="1" fold="1" page="1" pageScale="1" pageWidth="850" pageHeight="1100" math="0" shadow="0">
      <root>
        <mxCell id="0" />
        <mxCell id="1" parent="0" />
        <mxCell id="MmPVwus6mlWFQz1sTIUf-1" value="Telegram App" style="rounded=1;whiteSpace=wrap;html=1;" vertex="1" parent="1">
          <mxGeometry x="80" y="80" width="140" height="130" as="geometry" />
        </mxCell>
        <mxCell id="MmPVwus6mlWFQz1sTIUf-3" value="My Program" style="rounded=1;whiteSpace=wrap;html=1;" vertex="1" parent="1">
          <mxGeometry x="390" y="80" width="140" height="130" as="geometry" />
        </mxCell>
        <mxCell id="MmPVwus6mlWFQz1sTIUf-4" value="Binance App" style="rounded=1;whiteSpace=wrap;html=1;" vertex="1" parent="1">
          <mxGeometry x="690" y="80" width="140" height="130" as="geometry" />
        </mxCell>
      </root>
    </mxGraphModel>
  </diagram>
</mxfile>
